<svg xmlns="http://www.w3.org/2000/svg" fill="#666" width="29.25" height="27" viewBox="0 0 29.25 27">
  <g id="Icon_ionic-ios-calendar" data-name="Icon ionic-ios-calendar" transform="translate(-3.375 -4.5)">
    <path id="Path_56" data-name="Path 56" d="M29.813,6.75H27V8.438A.564.564,0,0,1,26.438,9H25.313a.564.564,0,0,1-.562-.562V6.75H11.25V8.438A.564.564,0,0,1,10.688,9H9.563A.564.564,0,0,1,9,8.438V6.75H6.188A2.821,2.821,0,0,0,3.375,9.563V28.688A2.821,2.821,0,0,0,6.188,31.5H29.813a2.821,2.821,0,0,0,2.813-2.812V9.563A2.821,2.821,0,0,0,29.813,6.75Zm.563,21.094a1.41,1.41,0,0,1-1.406,1.406H7.031a1.41,1.41,0,0,1-1.406-1.406V15.188a.564.564,0,0,1,.563-.562H29.813a.564.564,0,0,1,.563.563Z"/>
    <path id="Path_57" data-name="Path 57" d="M11.25,5.063a.564.564,0,0,0-.562-.562H9.563A.564.564,0,0,0,9,5.063V6.75h2.25Z"/>
    <path id="Path_58" data-name="Path 58" d="M27,5.063a.564.564,0,0,0-.562-.562H25.313a.564.564,0,0,0-.562.563V6.75H27Z"/>
  </g>
</svg>
